<?xml version="1.0" standalone="no"?>
<!DOCTYPE svg PUBLIC "-//W3C//DTD SVG 20010904//EN"
 "http://www.w3.org/TR/2001/REC-SVG-20010904/DTD/svg10.dtd">
<svg version="1.0" xmlns="http://www.w3.org/2000/svg"
 width="900.000000pt" height="506.000000pt" viewBox="0 0 900.000000 506.000000"
 preserveAspectRatio="xMidYMid meet">

<g transform="translate(0.000000,506.000000) scale(0.100000,-0.100000)"
fill="#000000" stroke="none">
<path d="M4948 4135 c-6 -5 -234 -15 -342 -15 -61 0 -106 -4 -100 -8 5 -5 42
-21 82 -36 41 -14 105 -46 143 -71 64 -41 69 -47 58 -66 -8 -15 -8 -19 0 -15
7 5 11 -4 11 -24 0 -25 -3 -30 -17 -26 -17 5 -103 10 -132 7 -15 -1 -13 -52
14 -301 23 -209 24 -213 46 -207 10 3 23 -1 30 -9 6 -8 18 -14 25 -14 8 0 14
-9 14 -20 0 -11 5 -20 10 -20 6 0 10 19 10 43 1 39 2 41 15 23 16 -22 21 -111
6 -120 -5 -4 -14 6 -20 21 -11 27 -11 27 -6 -7 3 -19 7 -47 9 -61 3 -14 0 -32
-5 -40 -5 -8 -9 -9 -9 -3 0 6 -15 11 -32 11 -18 0 -44 1 -58 2 -56 2 -71 -1
-67 -12 2 -7 26 -16 54 -20 49 -8 50 -8 51 -47 1 -31 -2 -40 -18 -45 -23 -7
-43 2 -35 16 13 20 -6 49 -31 49 -14 0 -23 -4 -19 -10 3 -5 13 -6 22 -3 11 4
14 2 11 -8 -3 -8 -11 -13 -17 -11 -13 3 -9 -72 15 -273 8 -66 19 -155 23 -198
5 -43 11 -80 13 -82 2 -3 26 -6 54 -7 l49 -3 -3 -45 c-4 -57 -14 -68 -41 -41
-24 24 -51 28 -51 6 0 -9 9 -15 25 -15 14 0 25 -4 25 -10 0 -5 -14 -10 -31
-10 -23 0 -47 14 -95 56 -35 31 -64 52 -64 46 0 -6 6 -31 14 -54 8 -24 17 -67
21 -96 4 -29 13 -59 21 -67 11 -11 12 -19 4 -34 -14 -26 -13 -27 12 -51 12
-11 16 -20 9 -20 -9 0 -11 -13 -7 -45 2 -24 7 -49 11 -55 8 -14 32 -13 37 2 3
8 9 8 24 0 10 -6 13 -12 6 -12 -9 0 -11 -7 -7 -19 4 -14 0 -21 -14 -26 -12 -3
-25 -3 -31 0 -5 3 -10 1 -10 -4 0 -6 7 -11 15 -11 8 0 15 -5 15 -11 0 -5 4 -8
10 -4 14 9 61 -6 54 -17 -4 -6 0 -14 7 -19 11 -7 11 -11 1 -21 -10 -10 -14
-10 -21 1 -6 9 -10 10 -16 2 -3 -7 -15 -9 -25 -6 -26 8 -37 -15 -15 -32 11 -7
13 -13 7 -13 -7 0 -12 -10 -12 -22 0 -20 1 -21 20 -3 19 17 20 17 20 1 0 -10
-9 -20 -19 -23 -14 -4 -18 -11 -15 -29 2 -13 6 -38 8 -55 2 -18 12 -36 21 -42
14 -7 15 -11 4 -17 -7 -5 -14 -16 -15 -24 -1 -9 2 -14 7 -10 5 3 9 -2 9 -10 0
-9 4 -16 10 -16 5 0 14 -10 21 -21 9 -17 8 -23 -2 -30 -12 -8 -11 -11 1 -18
22 -15 5 -24 -19 -11 -19 9 -21 8 -21 -14 0 -14 5 -28 10 -31 6 -3 10 1 10 9
0 9 7 16 15 16 9 0 15 -9 15 -25 0 -14 -7 -28 -15 -31 -19 -8 -20 -24 -1 -24
8 0 15 -8 16 -17 0 -10 4 -135 8 -278 4 -145 10 -245 14 -225 4 19 19 199 34
400 14 201 30 369 34 374 5 4 13 5 19 2 11 -7 55 -138 66 -199 9 -48 27 -48
20 1 -2 20 -7 129 -10 242 -3 113 -10 346 -16 518 -6 172 -8 316 -5 319 3 3
19 -9 37 -27 28 -27 33 -40 36 -93 4 -77 25 -159 41 -165 9 -3 11 10 7 50 -6
62 -31 456 -41 641 -4 70 -4 127 -1 127 4 0 30 -42 88 -145 15 -26 22 -30 54
-27 65 5 201 61 246 100 39 35 41 41 49 112 5 41 12 188 16 325 8 291 19 252
-119 450 -140 201 -119 186 -264 184 -67 0 -123 -2 -125 -4z m199 -65 c50 -18
88 -82 119 -202 9 -35 11 -65 6 -71 -4 -7 -8 -24 -7 -39 1 -18 -4 -28 -13 -28
-11 0 -13 9 -7 37 4 21 12 42 18 46 13 10 -8 5 -65 -15 -33 -11 -38 -17 -38
-45 0 -39 9 -65 21 -57 5 3 9 -2 9 -10 0 -9 -4 -16 -10 -16 -11 0 -14 -171 -4
-232 8 -49 21 -50 16 -2 -3 28 -1 35 9 32 8 -3 14 -19 14 -39 0 -32 29 -89 44
-89 4 0 7 24 7 53 -1 36 3 51 11 50 8 -2 12 6 10 18 -1 12 4 24 11 26 8 3 12
-9 12 -41 0 -32 -4 -45 -12 -44 -15 3 -13 -45 2 -50 16 -6 12 -169 -4 -201
-15 -28 -85 -88 -87 -74 -1 4 0 20 1 36 2 32 -3 33 -38 9 -61 -43 -81 -34
-139 61 l-38 62 -6 190 c-4 105 -8 270 -8 367 -1 200 2 208 70 208 37 0 39 2
39 29 0 25 -5 30 -27 34 -21 3 -17 4 13 6 23 0 54 -4 71 -9z m58 -420 c3 -5 1
-10 -4 -10 -6 0 -11 5 -11 10 0 6 2 10 4 10 3 0 8 -4 11 -10z m-421 -519 c4
-5 3 -17 -1 -27 -6 -16 -7 -16 -20 2 -7 10 -13 21 -13 26 0 11 27 10 34 -1z
m-74 -841 c0 -10 6 -23 13 -27 12 -7 12 -13 0 -41 -8 -19 -18 -30 -24 -26 -8
4 -8 9 0 17 15 15 14 27 -3 27 -17 0 -30 30 -13 30 7 0 4 7 -6 14 -14 11 -15
15 -5 19 26 11 38 7 38 -13z m90 -426 c0 -8 -5 -12 -10 -9 -6 3 -17 0 -25 -9
-13 -13 -12 -15 7 -19 17 -3 15 -5 -9 -6 -17 0 -35 5 -39 12 -4 6 -4 9 1 5 12
-11 35 11 28 28 -4 10 2 14 21 14 17 0 26 -5 26 -16z m-40 -190 c0 -8 -5 -12
-10 -9 -6 4 -8 11 -5 16 9 14 15 11 15 -7z"/>
<path d="M4578 4028 c9 -9 15 -9 24 0 9 9 7 12 -12 12 -19 0 -21 -3 -12 -12z"/>
<path d="M7057 3983 c-4 -24 -14 -64 -22 -90 -8 -27 -22 -70 -30 -98 -38 -131
-49 -161 -67 -178 -17 -16 -17 -20 -3 -40 8 -12 15 -31 14 -42 -1 -17 -2 -16
-9 5 -8 24 -8 25 -15 3 -11 -35 -107 -39 -98 -4 4 15 -1 17 -28 13 -22 -3 -30
-1 -25 7 4 6 16 11 26 11 10 0 22 5 25 10 4 6 -8 10 -29 10 l-36 0 0 50 0 50
-65 0 -65 0 -1 43 c-1 23 -4 93 -8 156 l-6 114 -39 -112 c-21 -61 -43 -111
-48 -111 -5 0 -7 -4 -4 -9 7 -11 -47 -1 -55 11 -9 13 -51 -9 -73 -39 -11 -15
-14 -23 -7 -19 7 4 22 9 34 11 12 1 40 6 61 10 36 7 39 6 32 -11 -4 -10 -10
-31 -13 -46 -4 -22 -12 -28 -32 -29 -23 -2 -24 -2 -3 -6 25 -5 28 -13 10 -32
-10 -11 -10 -14 0 -18 15 -6 16 -40 0 -45 -6 -2 -12 -15 -13 -29 -2 -21 -6
-24 -39 -22 l-37 3 1 -183 c1 -100 5 -201 7 -224 5 -38 8 -42 42 -49 l36 -8
-40 -6 -40 -7 43 -2 c30 -1 42 -5 42 -16 0 -12 -7 -14 -27 -9 l-28 6 24 -17
c18 -14 20 -19 10 -26 -10 -6 -6 -9 14 -9 24 0 27 -4 27 -33 0 -29 -5 -36 -44
-55 -47 -24 -78 -52 -57 -52 7 0 9 -4 6 -10 -3 -5 -2 -10 4 -10 5 0 12 6 14
13 3 7 6 5 6 -6 1 -10 -5 -20 -12 -23 -17 -6 -20 -40 -21 -234 -1 -169 7 -237
25 -209 7 12 9 11 9 -3 0 -10 -5 -18 -11 -18 -33 0 12 -39 136 -119 118 -76
142 -88 159 -79 19 10 16 15 -39 64 l-60 53 -3 163 c-1 90 1 390 5 668 l8 505
65 3 65 3 -28 -29 -28 -29 23 -7 c13 -3 40 -6 60 -6 20 0 40 -5 43 -10 4 -6 8
-95 11 -198 4 -206 10 -272 25 -272 5 0 9 5 9 10 0 16 43 12 69 -7 23 -16 23
-17 5 -24 -10 -4 -39 -5 -63 -1 -32 4 -42 2 -37 -6 4 -7 18 -12 30 -12 13 0
37 -3 53 -6 26 -5 29 -10 32 -45 1 -29 -2 -39 -14 -39 -8 0 -15 5 -15 10 0 6
5 10 10 10 6 0 10 4 10 10 0 5 -23 -2 -52 -15 l-51 -24 0 -88 c0 -160 6 -253
17 -253 6 0 4 -5 -4 -10 -12 -8 -9 -10 12 -10 31 0 58 -9 58 -20 0 -4 -18 -4
-40 0 -44 8 -58 -1 -34 -21 14 -12 14 -14 -1 -25 -23 -17 -12 -44 17 -45 22
-1 22 -1 -2 -8 -28 -8 -38 -47 -21 -80 6 -11 57 -46 114 -77 56 -32 138 -79
182 -106 44 -26 91 -48 104 -48 25 0 57 30 143 134 32 38 46 62 40 68 -6 6
-48 14 -93 19 -46 4 -105 11 -131 14 -36 4 -48 2 -48 -8 0 -18 95 -58 108 -45
11 11 52 -7 52 -23 0 -34 -26 -51 -60 -39 -3 1 -18 1 -35 1 -23 -2 -40 8 -75
44 l-45 46 -6 212 c-4 117 -8 388 -10 602 l-4 390 78 3 77 3 0 49 0 49 -77 3
-78 3 -7 180 c-9 212 -11 234 -21 178z m-157 -498 c0 -24 -1 -24 -18 -7 -12
11 -14 20 -8 24 19 13 26 9 26 -17z m50 -37 c0 -64 -12 -69 -23 -10 -5 22 -3
32 6 33 9 0 9 2 -1 6 -10 4 -10 8 -1 19 6 8 13 14 15 14 2 0 4 -28 4 -62z
m-470 -598 c-8 -5 -19 -10 -25 -10 -5 0 -3 5 5 10 8 5 20 10 25 10 6 0 3 -5
-5 -10z"/>
<path d="M4630 3942 c0 -23 4 -28 25 -28 14 0 25 4 25 8 0 4 7 8 15 8 8 0 15
-5 15 -12 0 -6 3 -8 6 -5 4 4 1 13 -6 22 -9 11 -17 12 -34 3 -11 -6 -18 -7
-14 -3 9 9 -9 35 -23 35 -5 0 -9 -13 -9 -28z"/>
<path d="M1410 3929 c0 -15 -5 -19 -17 -15 -84 25 -147 22 -69 -4 25 -8 38
-20 45 -42 7 -20 11 -184 11 -480 0 -372 -2 -452 -14 -463 -25 -26 -166 -124
-217 -151 -27 -15 -51 -35 -54 -44 -8 -24 4 -50 24 -51 12 0 12 -2 -4 -9 -11
-5 -55 -9 -97 -9 l-78 -1 0 70 c0 71 10 86 38 58 10 -10 15 -10 21 0 5 8 10
13 12 12 2 0 19 5 38 13 22 10 29 17 21 22 -9 6 -9 9 1 16 10 6 11 9 2 9 -7 0
-13 11 -13 25 0 15 6 25 14 25 13 0 15 43 15 283 -1 286 -4 357 -19 357 -4 0
-6 -8 -3 -19 3 -10 0 -22 -6 -25 -7 -5 -11 4 -11 23 0 17 5 31 11 31 20 0 -2
20 -24 21 -17 1 -15 3 11 11 36 12 43 28 12 28 -13 0 -20 7 -20 20 0 13 -5 18
-15 14 -12 -5 -13 -10 -4 -20 13 -15 12 -16 -50 -18 -28 -1 -36 3 -40 20 -6
20 -86 97 -134 129 -25 16 -117 37 -117 26 0 -4 15 -11 33 -16 19 -6 37 -20
43 -35 8 -17 14 -188 18 -535 3 -280 8 -520 12 -531 24 -84 -205 55 -251 152
-11 23 -15 51 -12 80 3 37 1 44 -13 44 -45 0 -60 -64 -29 -126 33 -70 161
-193 237 -228 l62 -30 0 -319 0 -319 -37 -38 c-21 -20 -45 -39 -53 -42 -29
-10 -3 -16 125 -28 72 -6 157 -15 190 -20 33 -4 84 -11 113 -15 44 -7 52 -5
52 9 0 10 -8 16 -22 16 -13 0 -30 5 -38 10 -13 8 -12 10 4 10 15 0 16 3 6 15
-8 9 -21 13 -36 9 -33 -8 -56 8 -24 17 23 7 23 7 -6 8 -23 1 -43 12 -73 43
-38 40 -41 46 -41 100 0 55 1 58 28 63 65 14 116 33 120 45 3 9 -1 11 -13 6
-16 -6 -17 -5 -1 18 25 39 19 41 -11 5 -26 -31 -77 -59 -108 -59 -10 0 -15 10
-15 35 0 41 20 55 82 55 24 0 50 5 58 10 11 7 4 10 -27 10 -24 0 -43 5 -43 11
0 5 -5 7 -10 4 -6 -4 -7 -12 -3 -18 4 -7 -7 2 -25 20 -35 35 -42 70 -14 80 9
4 28 17 41 30 30 29 47 30 27 1 -18 -25 -20 -38 -8 -38 5 0 16 18 25 40 9 23
22 40 31 40 9 0 16 5 16 10 0 17 -22 11 -57 -16 -19 -14 -37 -24 -39 -21 -3 3
-15 -4 -27 -16 l-22 -22 -5 45 c-3 25 -4 82 -2 128 3 63 7 82 18 82 8 0 14 -4
14 -8 0 -5 21 -9 48 -10 l47 -2 -30 25 c-23 19 -26 25 -12 25 10 0 28 -7 41
-15 20 -13 28 -13 62 -1 56 19 161 73 212 108 l42 29 1 -228 c5 -692 7 -632
-22 -693 -14 -30 -42 -71 -62 -90 -56 -54 -51 -60 56 -60 50 0 175 -5 276 -10
101 -6 186 -9 188 -6 3 3 -24 19 -58 37 -82 41 -151 88 -144 98 2 5 -5 12 -18
15 -21 7 -21 7 -2 16 11 5 42 9 69 9 42 1 47 3 40 19 -5 9 -10 93 -12 187 -2
118 -7 172 -15 177 -9 6 -9 8 1 8 6 0 12 9 12 19 0 14 -5 18 -20 14 -12 -3
-20 0 -20 6 0 7 8 11 18 9 11 -2 18 4 20 20 3 19 -1 22 -33 22 -22 0 -38 6
-41 15 -4 8 -9 13 -13 11 -3 -2 -14 2 -24 9 -16 12 -16 14 5 34 13 11 32 28
43 37 11 8 13 12 5 8 -8 -4 -4 5 10 20 23 26 25 26 32 6 12 -32 18 -24 18 25
0 31 -4 45 -12 44 -7 -1 -26 -1 -41 0 -32 1 -28 21 4 21 11 0 17 5 14 10 -4 6
-11 8 -16 5 -5 -4 -18 -4 -28 0 -16 5 -19 12 -14 43 3 20 10 41 14 47 5 5 9
14 9 20 0 5 -5 3 -10 -5 -7 -11 -10 -7 -10 18 0 21 5 32 15 32 9 0 12 -6 8
-17 -4 -11 -3 -14 5 -9 8 5 12 -2 12 -23 0 -49 32 -50 38 -1 1 14 5 40 8 58 4
25 1 32 -12 32 -15 0 -15 2 2 21 18 19 18 22 2 33 -11 8 -14 16 -8 22 5 5 11
38 12 73 l3 64 65 33 c36 18 69 33 73 34 4 0 -4 -16 -19 -36 -19 -25 -29 -51
-32 -87 -4 -60 36 -289 74 -415 21 -70 30 -86 57 -103 41 -25 76 -19 142 25
l50 33 33 -44 c28 -37 38 -43 70 -43 32 0 43 7 92 61 30 34 78 85 106 114 l50
52 -27 12 c-14 6 -43 27 -63 47 -32 31 -35 37 -24 56 7 11 19 30 25 42 19 31
17 126 -2 126 -8 0 -19 9 -25 20 -6 11 -17 20 -26 20 -17 0 -36 43 -28 65 4 8
14 14 23 13 9 -2 15 3 14 9 -2 7 8 15 22 19 18 4 25 13 25 30 0 13 -5 24 -11
24 -5 0 -8 4 -4 9 3 5 1 12 -4 15 -5 3 -12 -6 -15 -19 -4 -16 -11 -23 -18 -19
-7 5 -9 2 -6 -7 3 -8 0 -20 -7 -26 -10 -9 -14 -9 -17 0 -6 16 5 58 15 58 19
-2 23 0 35 20 12 19 11 20 -7 14 -10 -3 -22 -1 -26 5 -3 5 -15 10 -26 10 -22
0 -23 3 -6 31 10 17 9 22 -5 30 -24 13 -23 25 2 32 13 3 18 11 14 20 -3 8 -1
18 5 22 6 3 14 0 17 -8 3 -8 14 -12 28 -10 20 4 22 9 18 61 -5 71 -17 97 -84
171 -52 59 -53 59 -58 33 -3 -15 -10 -27 -15 -27 -15 0 -19 46 -5 55 8 5 7 9
-5 14 -11 4 -18 0 -22 -12 -4 -17 -9 -16 -61 10 -51 26 -58 33 -62 65 -8 56
-35 59 -120 17 -38 -20 -86 -50 -105 -68 -47 -45 -48 -95 -3 -175 46 -81 90
-141 103 -141 8 0 14 21 17 55 6 67 26 98 94 143 56 37 70 39 83 15 5 -10 11
-210 12 -452 4 -404 3 -434 -13 -445 -40 -25 -63 16 -73 129 -4 33 -10 90 -15
126 -16 112 -2 190 46 255 l23 32 -34 4 c-19 2 -35 0 -35 -4 0 -4 -9 -8 -21
-8 -12 0 -18 -4 -13 -11 5 -9 -4 -10 -31 -5 -25 5 -35 4 -30 -3 3 -6 1 -11 -4
-11 -6 0 -11 14 -11 32 0 27 -13 33 -16 7 -1 -5 -2 -13 -3 -19 0 -5 -13 -9
-28 -8 -16 1 -47 -2 -69 -7 -37 -6 -43 -5 -49 14 -6 21 -35 30 -35 12 0 -5 -9
-13 -20 -16 -11 -3 -20 -15 -20 -26 0 -11 -7 -19 -17 -19 -10 0 -28 -3 -41 -6
-22 -6 -23 -4 -21 45 2 38 6 50 16 47 7 -3 13 -1 13 4 0 6 8 10 18 11 13 0 14
2 2 6 -8 3 -18 11 -22 17 -5 7 -8 7 -8 -2 0 -7 -5 -10 -10 -7 -8 5 -8 11 0 20
8 10 7 14 -7 18 -14 4 -13 5 5 6 15 1 22 7 22 22 0 17 5 20 33 17 l32 -3 3
223 c1 126 -1 222 -7 222 -14 0 -32 -26 -23 -35 4 -5 2 -5 -5 -2 -6 4 -13 2
-15 -4 -6 -19 -46 0 -51 24 l-4 22 -8 -22 c-4 -13 -11 -23 -15 -23 -10 0 -20
63 -20 132 l0 57 -57 47 c-45 36 -57 52 -55 70 2 13 1 24 -2 24 -3 0 -6 -9 -6
-21z m-410 -344 c0 -7 9 -15 19 -18 15 -4 18 -10 14 -28 -5 -18 -8 -19 -12 -7
-5 14 -8 14 -19 2 -10 -11 -10 -14 0 -15 7 -1 0 -4 -17 -8 -46 -11 -55 -3 -55
44 0 42 0 43 35 43 22 0 35 -5 35 -13z m-30 -115 c0 -12 -28 -25 -36 -17 -9 9
6 27 22 27 8 0 14 -5 14 -10z m-5 -60 c3 -5 1 -26 -4 -47 -6 -20 -8 -48 -4
-61 4 -19 10 -22 29 -18 14 4 24 2 24 -4 0 -5 -4 -10 -10 -10 -5 0 -10 -5 -10
-11 0 -5 4 -8 9 -4 10 6 36 -33 28 -41 -11 -11 -57 21 -57 39 0 33 -11 12 -12
-22 -1 -19 -6 -31 -14 -31 -13 0 -12 43 2 93 3 9 1 17 -5 17 -7 0 -11 23 -11
55 0 41 4 55 14 55 8 0 18 -4 21 -10z m600 -123 c0 -9 9 -22 19 -30 18 -13 18
-14 -12 -19 -31 -4 -32 -4 -32 35 0 26 4 37 12 35 7 -3 13 -12 13 -21z m85
-37 c0 -5 -7 -10 -16 -10 -8 0 -12 5 -9 10 3 6 10 10 16 10 5 0 9 -4 9 -10z
m-94 -65 c1 -8 -2 -17 -7 -21 -5 -3 -9 7 -9 22 0 27 12 26 16 -1z m44 21 c0
-3 -4 -8 -10 -11 -5 -3 -10 -1 -10 4 0 6 5 11 10 11 6 0 10 -2 10 -4z m-40
-66 c0 -5 -2 -10 -4 -10 -3 0 -8 5 -11 10 -3 6 -1 10 4 10 6 0 11 -4 11 -10z
m-4 -45 c-3 -8 -1 -27 4 -41 6 -14 7 -31 3 -37 -4 -7 -10 -2 -14 13 -11 40
-10 80 2 80 6 0 9 -7 5 -15z m5 -149 c17 -18 10 -34 -12 -29 -12 4 -18 11 -15
20 3 8 7 24 7 36 1 21 2 21 6 2 3 -11 9 -24 14 -29z m-575 -31 c10 -8 17 -15
14 -15 -42 -9 -48 -8 -53 10 -6 24 11 26 39 5z m578 -27 c-1 -9 10 -21 25 -27
22 -10 24 -9 9 2 -11 9 -14 18 -7 28 7 12 9 12 9 -1 0 -12 2 -12 9 -2 6 10 10
8 14 -10 10 -35 9 -38 -15 -38 -13 -1 -33 -6 -46 -13 l-23 -13 21 -19 c11 -10
20 -31 20 -47 0 -28 -14 -38 -23 -15 -3 6 -5 -4 -5 -23 0 -19 2 -27 5 -17 7
26 23 10 23 -24 0 -22 -5 -29 -20 -29 -18 0 -20 7 -22 68 -2 78 -5 123 -8 137
-1 6 -2 23 -1 38 1 22 5 28 19 25 9 -2 16 -11 16 -20z m89 -13 c4 -8 2 -17 -3
-20 -6 -4 -10 3 -10 14 0 25 6 27 13 6z m-673 -26 c0 -6 -4 -7 -10 -4 -5 3
-10 11 -10 16 0 6 5 7 10 4 6 -3 10 -11 10 -16z m1361 -39 c10 0 19 -4 19 -10
0 -11 -20 -13 -43 -4 -10 3 -13 13 -9 27 5 18 7 19 10 5 2 -10 12 -18 23 -18z
m-699 -35 c-5 -29 -9 -30 -34 -8 -26 23 -22 33 11 33 25 0 28 -3 23 -25z m-24
-33 c2 -7 -3 -12 -12 -12 -9 0 -16 7 -16 16 0 17 22 14 28 -4z m717 -29 c-19
-13 -35 -9 -35 9 0 6 3 8 7 5 3 -4 13 3 22 16 15 21 16 21 19 3 2 -11 -4 -25
-13 -33z m-50 -53 c3 -5 2 -10 -4 -10 -5 0 -13 5 -16 10 -3 6 -2 10 4 10 5 0
13 -4 16 -10z m-285 -20 c0 -5 -4 -10 -10 -10 -5 0 -10 5 -10 10 0 6 5 10 10
10 6 0 10 -4 10 -10z m-1016 -16 c22 -8 8 -34 -20 -34 -23 0 -32 18 -17 33 8
9 17 9 37 1z m595 -34 c-2 -21 0 -42 4 -46 13 -13 7 -22 -18 -26 -24 -5 -25
-4 -25 53 0 53 2 59 21 59 18 0 20 -5 18 -40z m771 10 l45 -31 -65 3 c-56 3
-65 6 -68 23 -3 17 -1 17 7 5 9 -13 11 -13 11 2 0 9 -6 19 -12 21 -7 3 -2 6
12 6 14 1 45 -13 70 -29z m-737 -141 c9 0 17 -2 17 -5 0 -11 -46 -66 -67 -79
l-23 -15 0 56 0 56 28 -6 c15 -4 35 -7 45 -7z m27 -219 c0 -5 -5 -10 -11 -10
-5 0 -7 5 -4 10 3 6 8 10 11 10 2 0 4 -4 4 -10z"/>
<path d="M2655 3830 c-3 -5 -1 -10 4 -10 6 0 11 5 11 10 0 6 -2 10 -4 10 -3 0
-8 -4 -11 -10z"/>
<path d="M3108 3713 c-86 -71 -157 -131 -157 -135 -1 -5 23 -8 53 -8 90 0 85
23 86 -410 0 -209 3 -437 6 -508 6 -135 -5 -195 -41 -208 -8 -3 -15 -15 -15
-27 0 -19 4 -20 113 -14 61 4 151 7 200 7 79 0 87 2 87 19 0 12 -9 21 -25 25
-48 12 -59 46 -65 207 -3 82 -9 152 -14 156 -4 4 -30 8 -57 8 -44 0 -49 2 -54
25 -10 51 -14 394 -4 406 8 10 18 9 44 -2 44 -18 67 -18 35 1 l-25 14 24 1
c23 0 22 2 -15 35 -21 19 -47 34 -56 35 -13 0 -18 8 -18 29 0 33 21 45 77 43
25 -1 31 2 26 14 -4 11 -14 14 -32 11 -33 -5 -73 5 -69 18 2 6 6 9 11 8 4 -2
7 6 7 17 0 11 -4 20 -10 20 -5 0 -10 12 -10 27 0 15 -5 41 -12 60 -11 29 -10
35 8 48 14 11 15 14 2 9 -15 -5 -15 -3 0 30 12 27 22 36 40 36 19 0 23 4 19
20 -3 11 -1 18 3 15 5 -3 14 4 21 16 10 19 9 25 -6 35 -15 11 -16 16 -5 29 10
12 10 15 -2 15 -8 0 -85 -57 -170 -127z"/>
<path d="M2607 3787 c-16 -12 -42 -33 -58 -45 -16 -13 -29 -30 -29 -38 0 -8
-6 -13 -12 -11 -8 1 -12 -6 -10 -17 3 -17 2 -18 -12 -7 -11 9 -16 10 -16 2 0
-6 -5 -11 -10 -11 -13 0 -109 -72 -109 -82 -1 -5 26 -8 59 -8 46 0 61 -4 69
-17 5 -10 10 -248 12 -538 4 -569 8 -518 -46 -591 -5 -7 -7 -16 -4 -19 4 -3
95 -2 203 1 178 7 196 9 196 25 0 11 -9 19 -22 21 -32 4 -68 63 -68 109 0 38
-12 50 -25 28 -4 -6 -21 -9 -39 -8 -17 2 -36 0 -42 -4 -7 -4 -13 11 -18 46
-10 89 -8 127 9 127 8 0 15 -4 15 -9 0 -10 79 -71 92 -71 4 0 8 7 8 15 0 8 -6
15 -14 15 -8 0 -16 7 -20 15 -3 8 -12 15 -19 15 -8 0 -20 7 -27 15 -11 13 -7
15 30 15 60 0 46 8 -19 11 -29 2 -55 7 -57 13 -8 23 -11 427 -3 432 5 3 9 10
9 15 0 6 -5 7 -11 3 -7 -4 -9 2 -7 17 3 22 21 31 40 22 4 -2 -2 -19 -12 -38
-11 -19 -16 -35 -11 -35 6 0 13 -9 16 -21 10 -30 15 -19 25 52 5 34 15 66 21
70 10 6 10 11 -2 25 -13 15 -12 16 10 9 23 -7 23 -6 19 56 -3 35 -10 73 -16
85 -8 16 -8 24 0 32 20 20 38 14 49 -15 18 -49 41 -227 34 -272 -8 -55 -6 -54
120 40 l96 72 -30 20 c-35 22 -40 32 -12 24 12 -3 22 1 26 11 8 21 -2 27 -20
12 -11 -9 -15 -9 -15 -1 0 6 7 14 15 17 17 7 21 44 5 44 -5 0 -10 -5 -10 -10
0 -13 -41 -70 -50 -70 -4 0 -5 14 -2 30 3 21 0 30 -10 30 -8 0 -19 15 -26 33
-17 47 -15 53 11 30 25 -23 59 -34 75 -24 19 11 -3 30 -37 33 -19 1 -37 10
-42 20 -6 10 -14 16 -19 13 -5 -3 -16 7 -23 22 -13 24 -13 36 -1 82 8 30 12
56 9 59 -6 7 -60 -22 -89 -47 -10 -9 -27 -33 -37 -53 -13 -25 -26 -38 -39 -38
-17 0 -20 -7 -20 -47 -1 -38 -3 -44 -11 -30 -12 20 -31 23 -23 3 3 -8 1 -17
-5 -21 -7 -4 -11 10 -11 40 0 25 -6 61 -14 79 -12 29 -12 38 -1 60 8 14 12 26
10 26 -2 0 7 24 20 53 38 80 33 95 -18 54z m223 -117 c0 -5 -2 -10 -4 -10 -3
0 -8 5 -11 10 -3 6 -1 10 4 10 6 0 11 -4 11 -10z m-130 -151 c0 -5 -4 -9 -10
-9 -5 0 -10 7 -10 16 0 8 5 12 10 9 6 -3 10 -10 10 -16z"/>
<path d="M1570 3780 c0 -24 15 -27 24 -4 9 22 8 24 -9 24 -8 0 -15 -9 -15 -20z"/>
<path d="M6920 3766 c6 -8 19 -12 27 -9 14 6 14 8 -3 14 -30 12 -37 10 -24 -5z"/>
<path d="M1560 3720 c0 -5 5 -10 10 -10 6 0 10 5 10 10 0 6 -4 10 -10 10 -5 0
-10 -4 -10 -10z"/>
<path d="M3278 3718 c-4 -9 -17 -18 -30 -20 l-23 -5 25 -10 c28 -12 44 3 38
35 -3 16 -4 16 -10 0z"/>
<path d="M3409 3698 c-68 -41 -112 -97 -76 -98 6 -1 -3 -9 -21 -18 -32 -17
-32 -19 -14 -35 10 -9 24 -17 30 -17 26 0 69 -238 57 -311 -4 -24 -3 -39 3
-39 6 0 55 34 110 76 87 65 100 78 93 97 -6 16 -17 21 -49 22 -23 1 -43 3 -45
6 -8 10 -67 206 -67 220 0 28 21 78 34 81 8 2 6 8 -5 19 -16 16 -19 16 -50 -3z"/>
<path d="M8177 3707 c-4 -10 -10 -16 -15 -15 -5 2 -27 -18 -49 -44 l-41 -47
15 -50 c8 -28 13 -61 11 -73 -4 -28 -28 -36 -28 -9 0 11 -4 23 -10 26 -12 7
-13 55 -2 55 5 0 9 7 9 14 0 25 -29 2 -96 -73 -46 -52 -57 -70 -46 -75 8 -3
23 3 32 13 10 11 25 20 33 22 29 5 68 -13 73 -32 5 -18 2 -19 -25 -14 l-30 7
21 -21 c12 -12 21 -25 21 -30 0 -5 -20 -31 -45 -58 -47 -53 -73 -126 -54 -149
7 -8 6 -14 -1 -19 -7 -4 -9 -36 -6 -88 2 -45 5 -117 5 -159 1 -48 5 -78 12
-78 5 0 7 5 4 10 -9 15 29 12 60 -4 15 -8 34 -12 41 -9 11 4 14 -11 15 -73 0
-44 2 -111 4 -150 4 -82 -6 -92 -65 -68 -18 8 -37 14 -44 14 -11 0 30 -21 69
-35 l20 -7 -20 -8 c-17 -7 -17 -9 -2 -9 9 -1 17 -5 17 -11 0 -5 8 -6 17 -3 13
5 15 2 10 -11 -4 -10 -7 -22 -7 -27 0 -6 -4 -7 -10 -4 -5 3 -10 1 -10 -5 0 -8
-20 -11 -59 -9 -56 2 -62 0 -100 -34 -23 -20 -46 -37 -51 -37 -6 0 -10 -6 -10
-12 0 -8 35 -19 98 -30 53 -9 142 -26 197 -38 91 -19 280 -50 305 -50 5 0 10
7 10 15 0 8 -8 15 -17 15 -34 0 -118 47 -150 83 -18 20 -36 54 -42 74 -12 48
-19 228 -27 668 -7 369 -3 421 36 448 11 8 17 17 12 21 -7 8 -9 14 -11 47 -1
17 -4 19 -14 10 -21 -17 -37 7 -38 59 0 25 -4 54 -8 64 -7 18 -8 18 -14 3z
m-50 -129 c-3 -8 -6 -5 -6 6 -1 11 2 17 5 13 3 -3 4 -12 1 -19z m113 -69 c0
-5 -4 -9 -10 -9 -5 0 -10 7 -10 16 0 8 5 12 10 9 6 -3 10 -10 10 -16z m-171
-257 l-1 -89 -35 -12 c-30 -11 -37 -11 -51 3 -14 14 -14 16 4 23 12 5 19 18
19 36 1 30 -4 33 -24 15 -11 -11 -11 -9 -2 7 20 37 60 79 67 72 4 -4 -1 -14
-12 -21 -10 -8 -16 -17 -13 -21 11 -11 39 25 39 51 0 13 2 24 5 24 3 0 5 -40
4 -88z"/>
<path d="M6323 3673 c-15 -5 -17 -23 -4 -23 5 0 11 7 15 15 3 8 4 15 3 14 -1
0 -8 -3 -14 -6z"/>
<path d="M6376 3655 c-4 -10 1 -15 14 -15 11 0 20 7 20 15 0 8 -6 15 -14 15
-8 0 -16 -7 -20 -15z"/>
<path d="M6331 3637 c-11 -14 -11 -17 0 -17 9 -1 8 -4 -4 -11 -11 -6 -32 -9
-48 -7 -22 3 -33 0 -40 -14 -8 -15 -6 -18 13 -18 13 0 46 -3 74 -6 47 -6 53
-4 59 15 4 15 13 20 28 17 12 -1 16 -1 10 1 -7 3 -13 11 -13 20 0 12 -7 14
-29 10 -22 -5 -30 -2 -33 10 -3 15 -4 15 -17 0z"/>
<path d="M8352 3598 c-2 -28 -7 -59 -12 -67 -5 -11 0 -37 16 -75 29 -72 29
-76 2 -162 -25 -81 -45 -115 -62 -108 -7 3 -18 -2 -25 -10 -10 -12 -10 -19 2
-36 15 -21 18 -19 137 87 l122 108 -7 39 c-13 85 -119 276 -153 276 -13 0 -18
-11 -20 -52z"/>
<path d="M6850 3629 c0 -5 5 -7 10 -4 6 3 10 8 10 11 0 2 -4 4 -10 4 -5 0 -10
-5 -10 -11z"/>
<path d="M7513 3613 c-17 -6 -16 -23 1 -23 20 0 27 -27 11 -40 -11 -9 -17 -7
-27 9 -17 28 -22 27 -75 -16 -98 -81 -142 -125 -156 -156 -17 -35 -29 -245
-15 -253 5 -3 8 -2 7 3 -4 24 2 46 10 37 16 -15 25 -64 12 -64 -6 0 -11 -5
-11 -11 0 -6 9 -8 20 -4 35 11 21 -10 -15 -24 -33 -12 -35 -15 -35 -58 l0 -46
25 27 c14 15 30 24 35 21 14 -8 13 -45 -1 -45 -6 0 -8 -7 -5 -16 5 -12 2 -15
-11 -9 -48 19 -48 19 -51 -145 -2 -85 0 -170 3 -188 5 -25 34 -63 114 -145
l108 -111 79 -7 c96 -8 115 0 153 60 66 105 141 240 141 253 -1 7 -24 44 -52
83 -57 77 -50 79 -86 -30 -11 -33 -23 -68 -27 -77 -5 -13 -2 -18 11 -18 11 0
25 -4 32 -8 18 -12 -17 -92 -40 -92 -10 0 -18 -5 -18 -11 0 -5 5 -7 10 -4 6 3
10 1 10 -4 0 -6 -4 -11 -10 -11 -5 0 -7 -6 -4 -13 2 -7 -3 -21 -12 -32 -8 -11
-12 -14 -8 -6 6 11 3 13 -12 7 -10 -4 -33 -10 -50 -13 -27 -4 -35 0 -60 33
l-29 37 -3 285 -3 284 28 -5 c111 -23 172 -37 196 -46 16 -6 43 -11 61 -11 28
0 36 7 66 56 26 44 34 66 33 103 -2 70 -61 313 -81 333 -25 25 -213 118 -237
117 -11 0 -26 -3 -32 -6z m-23 -63 c0 -5 -7 -10 -15 -10 -8 0 -15 5 -15 10 0
6 7 10 15 10 8 0 15 -4 15 -10z m-33 -56 c-9 -9 -28 6 -21 18 4 6 10 6 17 -1
6 -6 8 -13 4 -17z m116 -86 c8 -24 31 -91 50 -150 41 -124 47 -116 -75 -96
l-70 11 7 126 c7 138 21 179 54 162 10 -6 25 -29 34 -53z m41 43 c4 -5 -3 -7
-14 -4 -23 6 -26 13 -6 13 8 0 17 -4 20 -9z m56 -6 c7 -9 8 -15 2 -15 -5 0
-12 7 -16 15 -3 8 -4 15 -2 15 2 0 9 -7 16 -15z m-350 -230 c0 -8 6 -12 14 -9
9 3 15 -4 18 -20 3 -16 0 -27 -10 -31 -12 -4 -12 -8 -2 -21 11 -12 11 -17 0
-27 -10 -9 -11 -9 -6 0 4 7 -3 22 -14 33 -11 11 -18 25 -15 29 2 5 -2 11 -10
15 -23 8 -19 46 5 46 11 0 20 -7 20 -15z m30 -141 c0 -8 -4 -12 -10 -9 -5 3
-10 10 -10 16 0 5 5 9 10 9 6 0 10 -7 10 -16z m-80 -44 c0 -5 -4 -10 -10 -10
-5 0 -10 5 -10 10 0 6 5 10 10 10 6 0 10 -4 10 -10z m50 0 c0 -5 -2 -10 -4
-10 -3 0 -8 5 -11 10 -3 6 -1 10 4 10 6 0 11 -4 11 -10z m30 -51 c0 -16 -4
-29 -8 -29 -5 0 -9 16 -9 35 0 19 4 32 9 29 4 -3 8 -18 8 -35z m0 -109 c0 -5
-2 -10 -4 -10 -3 0 -8 5 -11 10 -3 6 -1 10 4 10 6 0 11 -4 11 -10z"/>
<path d="M6860 3580 c-7 -14 -7 -20 0 -20 5 0 19 9 30 20 20 20 20 20 0 20
-10 0 -24 -9 -30 -20z"/>
<path d="M5820 3537 c-139 -71 -198 -107 -220 -134 -26 -33 -25 -48 1 -67 19
-13 24 -13 45 0 29 19 47 10 38 -19 -4 -12 -6 -93 -6 -179 2 -144 0 -158 -16
-158 -15 0 -17 9 -14 75 2 41 -1 75 -6 75 -5 0 -19 -11 -32 -25 -22 -23 -22
-25 -6 -50 10 -15 15 -29 12 -32 -3 -4 -1 -12 5 -20 9 -10 6 -13 -15 -13 -14
0 -26 6 -27 13 0 6 -5 2 -11 -11 -13 -27 -4 -40 17 -22 20 17 31 -10 15 -40
-10 -18 -14 -19 -28 -8 -9 7 -13 8 -9 2 3 -5 7 -32 8 -58 2 -26 6 -49 11 -52
4 -3 8 2 8 10 0 12 10 16 40 16 38 0 40 1 41 33 1 18 5 6 9 -28 8 -71 6 -75
-25 -75 -13 0 -36 -12 -50 -27 -23 -25 -25 -33 -19 -78 8 -62 12 -70 62 -118
l39 -38 20 31 c13 21 23 28 28 21 4 -7 1 -18 -5 -26 -13 -16 -9 -18 25 -16 12
0 7 -5 -13 -12 l-33 -12 39 -38 c21 -20 40 -37 44 -37 3 0 4 16 1 35 -2 19 -2
35 1 35 2 0 21 -16 41 -35 35 -31 37 -37 27 -60 -11 -23 -10 -25 14 -25 46 0
178 50 252 96 111 70 106 41 98 498 -4 215 -12 407 -17 427 -7 29 -28 51 -105
113 -91 73 -97 76 -147 76 -41 0 -69 -9 -137 -43z m143 -94 c8 -16 19 -57 25
-92 7 -35 18 -74 27 -87 11 -18 14 -37 9 -80 -4 -30 -10 -50 -14 -44 -4 6 -10
-8 -13 -31 -3 -24 -1 -49 4 -55 7 -8 6 -14 -1 -19 -6 -4 -10 -77 -10 -206 l0
-199 24 0 c28 0 54 -25 34 -32 -7 -3 -23 -4 -36 -3 -12 1 -21 -3 -19 -9 2 -6
10 -11 18 -12 32 -2 37 -5 42 -23 3 -14 -8 -33 -36 -63 -22 -24 -34 -35 -27
-25 18 25 8 30 -34 18 -34 -9 -40 -7 -70 20 -66 57 -68 70 -78 424 -10 341 -8
397 16 443 14 26 99 99 118 101 4 1 14 -11 21 -26z m135 -199 c3 -16 1 -16 -7
-4 -7 10 -11 11 -11 3 0 -15 -27 -6 -33 11 -4 9 4 12 21 11 18 -1 28 -7 30
-21z m-418 -307 c0 -16 -4 -26 -9 -23 -13 9 -32 -19 -25 -38 4 -12 0 -16 -16
-16 -17 0 -20 4 -15 23 4 12 16 30 28 40 l20 18 -21 6 c-28 7 -21 18 12 18 22
0 26 -5 26 -28z m416 -85 c-9 -9 -37 8 -31 18 5 8 11 7 21 -1 8 -6 12 -14 10
-17z m-411 -140 c0 -9 -5 -24 -10 -32 -5 -9 -4 -15 3 -18 17 -5 15 -19 -4 -26
-12 -4 -15 -2 -10 9 3 8 0 15 -6 15 -6 0 -5 6 3 17 10 12 11 17 2 20 -15 5 -5
33 11 33 7 0 12 -8 11 -18z m30 -111 c3 -5 1 -12 -4 -15 -5 -3 -11 1 -15 9 -6
16 9 21 19 6z m-30 -30 c-3 -6 -11 -11 -16 -11 -5 0 -4 6 3 14 14 16 24 13 13
-3z m81 -100 c0 -11 -4 -17 -8 -15 -4 3 -8 12 -8 20 0 8 4 14 8 14 4 0 8 -9 8
-19z"/>
<path d="M4560 3490 c0 -25 34 -145 42 -151 5 -3 8 -15 6 -25 -2 -13 3 -19 17
-19 11 0 40 -15 64 -33 32 -23 47 -29 52 -20 9 15 1 31 -12 23 -5 -4 -9 -1 -9
6 0 7 -12 28 -27 48 -16 20 -49 69 -75 109 -47 70 -58 83 -58 62z"/>
<path d="M2895 3460 c-3 -5 3 -10 14 -10 12 0 21 5 21 10 0 6 -6 10 -14 10 -8
0 -18 -4 -21 -10z"/>
<path d="M7885 3410 c-8 -13 -1 -24 14 -19 6 3 7 10 2 18 -6 10 -10 10 -16 1z"/>
<path d="M4132 3360 c2 -8 13 -16 25 -18 52 -8 50 -20 -47 -267 -51 -129 -97
-235 -101 -235 -5 0 -13 17 -18 38 -18 66 -40 146 -46 167 -3 12 -16 25 -27
30 -12 6 -24 17 -26 25 -4 13 -3 13 10 2 13 -10 18 -10 24 -1 4 8 2 15 -5 17
-7 2 -21 14 -30 25 -9 11 -24 27 -33 36 -10 8 -18 22 -18 31 0 13 -1 13 -10 0
-12 -19 -13 -33 -1 -26 5 3 9 -9 9 -27 0 -63 20 -157 32 -157 5 0 9 -32 9 -70
0 -39 -4 -68 -9 -65 -4 3 -23 65 -40 138 -18 72 -39 140 -47 149 -22 24 -114
85 -140 93 -17 5 -23 2 -23 -9 0 -9 4 -16 10 -16 25 0 54 -113 115 -440 57
-310 61 -259 -40 -495 -67 -157 -93 -210 -115 -225 -25 -18 -44 -20 -167 -20
-76 0 -183 7 -237 15 -117 18 -139 18 -131 5 4 -6 10 -8 15 -5 14 8 60 -25 60
-42 0 -10 -6 -13 -16 -9 -9 3 -22 6 -30 6 -9 0 -13 4 -10 9 3 5 -9 9 -27 9
-88 1 -168 71 -147 128 l11 27 20 -21 c28 -31 46 -27 58 11 7 19 24 45 39 60
27 26 111 67 137 67 14 0 30 18 23 26 -10 10 -242 23 -258 14 -22 -12 -91
-104 -120 -159 -55 -108 26 -177 296 -256 197 -58 530 -97 566 -67 9 7 95 160
191 340 268 499 311 591 273 576 -9 -4 -16 -1 -16 6 0 8 8 10 21 7 15 -4 22 1
30 19 12 33 12 34 -9 34 -10 0 -19 7 -19 15 0 12 7 14 27 10 25 -5 29 -2 48
46 l22 51 -40 -4 c-22 -2 -40 -1 -40 2 0 7 87 228 95 240 4 7 12 7 18 2 21
-15 67 -13 67 3 0 11 -11 15 -36 15 -35 0 -35 1 -29 33 9 42 8 41 44 23 41
-21 54 -20 48 4 -4 14 2 24 16 31 29 16 28 14 21 33 -5 12 -20 16 -68 17 -33
0 -94 4 -134 8 -63 6 -72 5 -70 -9z m-482 -1384 c0 -2 -8 -10 -17 -17 -16 -13
-17 -12 -4 4 13 16 21 21 21 13z"/>
<path d="M3760 3251 c0 -15 29 -21 56 -11 40 16 71 3 79 -33 7 -26 9 -28 12
-11 2 12 15 26 29 33 14 6 22 16 19 21 -8 12 -195 13 -195 1z"/>
<path d="M3240 3229 c0 -5 5 -7 10 -4 6 3 10 8 10 11 0 2 -4 4 -10 4 -5 0 -10
-5 -10 -11z"/>
<path d="M4760 3230 c0 -5 5 -10 11 -10 5 0 7 5 4 10 -3 6 -8 10 -11 10 -2 0
-4 -4 -4 -10z"/>
<path d="M1633 3193 c9 -2 25 -2 35 0 9 3 1 5 -18 5 -19 0 -27 -2 -17 -5z"/>
<path d="M2301 3148 c-14 -23 -14 -23 8 -4 22 20 25 26 13 26 -4 0 -13 -10
-21 -22z"/>
<path d="M1661 3134 c0 -11 3 -14 6 -6 3 7 2 16 -1 19 -3 4 -6 -2 -5 -13z"/>
<path d="M5560 3111 c0 -11 5 -23 10 -26 6 -3 10 3 10 14 0 11 -4 23 -10 26
-5 3 -10 -3 -10 -14z"/>
<path d="M7240 3100 c0 -5 5 -10 10 -10 6 0 10 5 10 10 0 6 -4 10 -10 10 -5 0
-10 -4 -10 -10z"/>
<path d="M4190 2990 c0 -5 12 -10 26 -10 14 0 23 4 19 10 -3 6 -15 10 -26 10
-10 0 -19 -4 -19 -10z"/>
<path d="M2330 2976 c0 -8 7 -16 15 -20 10 -4 15 1 15 14 0 11 -7 20 -15 20
-8 0 -15 -6 -15 -14z"/>
<path d="M3286 2974 c-9 -22 3 -32 14 -14 12 19 12 30 1 30 -5 0 -12 -7 -15
-16z"/>
<path d="M6410 2960 c0 -5 5 -10 10 -10 6 0 10 5 10 10 0 6 -4 10 -10 10 -5 0
-10 -4 -10 -10z"/>
<path d="M588 2938 c-49 -21 -58 -32 -35 -41 11 -4 84 36 106 58 11 12 -28 2
-71 -17z"/>
<path d="M2296 2924 c-4 -10 -1 -14 6 -12 15 5 23 28 10 28 -5 0 -13 -7 -16
-16z"/>
<path d="M2343 2933 c-18 -7 -16 -20 2 -20 8 0 15 6 15 14 0 7 -1 13 -2 12 -2
0 -9 -3 -15 -6z"/>
<path d="M3270 2860 c0 -5 17 -10 38 -9 33 1 34 2 12 9 -36 11 -50 11 -50 0z"/>
<path d="M965 2730 c-3 -5 -1 -10 4 -10 6 0 11 5 11 10 0 6 -2 10 -4 10 -3 0
-8 -4 -11 -10z"/>
<path d="M7646 2575 c-3 -9 0 -15 9 -15 8 0 15 7 15 15 0 8 -4 15 -9 15 -5 0
-11 -7 -15 -15z"/>
<path d="M1668 2553 c7 -3 16 -2 19 1 4 3 -2 6 -13 5 -11 0 -14 -3 -6 -6z"/>
<path d="M982 2450 c0 -19 2 -27 5 -17 2 9 2 25 0 35 -3 9 -5 1 -5 -18z"/>
<path d="M954 2286 c-8 -22 -2 -27 16 -16 12 7 12 12 3 21 -10 10 -14 9 -19
-5z"/>
<path d="M1068 2289 c-10 -6 -23 -20 -30 -32 -11 -21 -10 -21 8 -7 47 37 60
60 22 39z"/>
<path d="M995 2280 c-3 -5 -1 -10 4 -10 6 0 11 5 11 10 0 6 -2 10 -4 10 -3 0
-8 -4 -11 -10z"/>
<path d="M1050 2050 c0 -5 7 -7 15 -4 8 4 15 8 15 10 0 2 -7 4 -15 4 -8 0 -15
-4 -15 -10z"/>
<path d="M1056 2001 c-4 -5 1 -8 9 -7 21 3 31 16 12 16 -9 0 -18 -4 -21 -9z"/>
<path d="M4700 1980 c0 -24 15 -27 24 -4 9 22 8 24 -9 24 -8 0 -15 -9 -15 -20z"/>
<path d="M1050 1941 c19 -11 37 -15 39 -10 5 15 -3 20 -41 25 l-33 4 35 -19z"/>
<path d="M4720 1610 c-8 -5 -11 -12 -7 -16 4 -4 15 0 24 9 18 18 8 23 -17 7z"/>
</g>
</svg>
