<?xml version="1.0" standalone="no"?>
<!DOCTYPE svg PUBLIC "-//W3C//DTD SVG 20010904//EN"
 "http://www.w3.org/TR/2001/REC-SVG-20010904/DTD/svg10.dtd">
<svg version="1.0" xmlns="http://www.w3.org/2000/svg"
 width="200.000000pt" height="200.000000pt" viewBox="0 0 200.000000 200.000000"
 preserveAspectRatio="xMidYMid meet">

<g transform="translate(0.000000,200.000000) scale(0.100000,-0.100000)"
fill="#000000" stroke="none">
<path d="M805 1876 c-254 -50 -425 -206 -486 -444 -10 -42 -16 -79 -12 -83 5
-3 85 -9 179 -13 l172 -6 10 42 c38 147 174 238 339 225 154 -12 243 -98 243
-234 0 -97 -55 -180 -187 -279 -223 -167 -295 -262 -318 -417 l-7 -47 170 0
170 0 12 50 c13 52 54 119 98 158 15 13 77 61 137 106 214 161 285 272 285
445 0 237 -149 417 -399 482 -100 26 -309 34 -406 15z"/>
<path d="M730 250 l0 -170 185 0 185 0 0 170 0 170 -185 0 -185 0 0 -170z"/>
</g>
</svg>
